<svg xmlns="http://www.w3.org/2000/svg" viewBox="0 0 15.3 15.32"><defs><style>.cls-1{fill:#293880;}.cls-2{fill:#c3cae2;}.cls-3{fill:#718dc8;}</style></defs><title>camera_loader</title><g id="back-wheel_copy" data-name="back-wheel copy"><path class="cls-1" d="M10.68,13a3.67,3.67,0,0,1,4.5.94,7.68,7.68,0,0,0,1.51-4.08A3.67,3.67,0,0,1,13.8,3.38,7.65,7.65,0,0,0,9,1.73,3.66,3.66,0,0,1,2.61,5.24a7.64,7.64,0,0,0-1.23,4,3.67,3.67,0,0,1,3.24,6.35A7.59,7.59,0,0,0,8.76,17,3.66,3.66,0,0,1,10.68,13Z" transform="translate(-1.38 -1.73)"/></g><g id="iris"><circle class="cls-2" cx="7.65" cy="8.08" r="3.37"/></g><g id="pupil"><circle class="cls-3" cx="7.65" cy="8.08" r="0.78"/></g></svg>